<svg id="visual" viewBox="0 0 900 600" width="900" height="600" xmlns="http://www.w3.org/2000/svg" xmlns:xlink="http://www.w3.org/1999/xlink" version="1.1"><rect x="0" y="0" width="900" height="600" fill="#001220"></rect><defs><linearGradient id="grad1_0" x1="33.3%" y1="0%" x2="100%" y2="100%"><stop offset="20%" stop-color="#001220" stop-opacity="1"></stop><stop offset="80%" stop-color="#001220" stop-opacity="1"></stop></linearGradient></defs><defs><linearGradient id="grad2_0" x1="0%" y1="0%" x2="66.7%" y2="100%"><stop offset="20%" stop-color="#001220" stop-opacity="1"></stop><stop offset="80%" stop-color="#001220" stop-opacity="1"></stop></linearGradient></defs><g transform="translate(900, 0)"><path d="M0 351.5C-27.8 328.9 -55.6 306.4 -77.4 288.8C-99.2 271.3 -115 258.8 -149.5 258.9C-184 259.1 -237.2 272 -248.6 248.6C-260 225.2 -229.5 165.5 -230.4 133C-231.2 100.5 -263.4 95 -288.8 77.4C-314.2 59.7 -332.9 29.9 -351.5 0L0 0Z" fill="#FBAE3C"></path></g><g transform="translate(0, 600)"><path d="M0 -351.5C31 -351.6 62 -351.7 91 -339.6C120 -327.4 146.9 -303.1 156.5 -271.1C166.1 -239 158.3 -199.2 186.7 -186.7C215.1 -174.2 279.8 -189 302.2 -174.5C324.7 -160 305 -116 306.2 -82C307.4 -48.1 329.5 -24 351.5 0L0 0Z" fill="#FBAE3C"></path></g></svg>