<svg id="visual" viewBox="0 0 900 600" width="900" height="600" xmlns="http://www.w3.org/2000/svg" xmlns:xlink="http://www.w3.org/1999/xlink" version="1.1"><rect x="0" y="0" width="900" height="600" fill="#001220"></rect><path d="M0 340L21.5 343.5C43 347 86 354 128.8 349.7C171.7 345.3 214.3 329.7 257.2 325.3C300 321 343 328 385.8 336.2C428.7 344.3 471.3 353.7 514.2 356.3C557 359 600 355 642.8 349.3C685.7 343.7 728.3 336.3 771.2 334.7C814 333 857 337 878.5 339L900 341L900 601L878.5 601C857 601 814 601 771.2 601C728.3 601 685.7 601 642.8 601C600 601 557 601 514.2 601C471.3 601 428.7 601 385.8 601C343 601 300 601 257.2 601C214.3 601 171.7 601 128.8 601C86 601 43 601 21.5 601L0 601Z" fill="#fa7268"></path><path d="M0 433L21.5 433.5C43 434 86 435 128.8 436C171.7 437 214.3 438 257.2 433.2C300 428.3 343 417.7 385.8 410C428.7 402.3 471.3 397.7 514.2 388.2C557 378.7 600 364.3 642.8 358.8C685.7 353.3 728.3 356.7 771.2 362.5C814 368.3 857 376.7 878.5 380.8L900 385L900 601L878.5 601C857 601 814 601 771.2 601C728.3 601 685.7 601 642.8 601C600 601 557 601 514.2 601C471.3 601 428.7 601 385.8 601C343 601 300 601 257.2 601C214.3 601 171.7 601 128.8 601C86 601 43 601 21.5 601L0 601Z" fill="#ef5f67"></path><path d="M0 410L21.5 413.3C43 416.7 86 423.3 128.8 435.3C171.7 447.3 214.3 464.7 257.2 466C300 467.3 343 452.7 385.8 441.7C428.7 430.7 471.3 423.3 514.2 428C557 432.7 600 449.3 642.8 447.7C685.7 446 728.3 426 771.2 417.5C814 409 857 412 878.5 413.5L900 415L900 601L878.5 601C857 601 814 601 771.2 601C728.3 601 685.7 601 642.8 601C600 601 557 601 514.2 601C471.3 601 428.7 601 385.8 601C343 601 300 601 257.2 601C214.3 601 171.7 601 128.8 601C86 601 43 601 21.5 601L0 601Z" fill="#e34c67"></path><path d="M0 461L21.5 464.5C43 468 86 475 128.8 480.5C171.7 486 214.3 490 257.2 495.8C300 501.7 343 509.3 385.8 507.7C428.7 506 471.3 495 514.2 494.7C557 494.3 600 504.7 642.8 510.8C685.7 517 728.3 519 771.2 520C814 521 857 521 878.5 521L900 521L900 601L878.5 601C857 601 814 601 771.2 601C728.3 601 685.7 601 642.8 601C600 601 557 601 514.2 601C471.3 601 428.7 601 385.8 601C343 601 300 601 257.2 601C214.3 601 171.7 601 128.8 601C86 601 43 601 21.5 601L0 601Z" fill="#d53867"></path><path d="M0 521L21.5 527.3C43 533.7 86 546.3 128.8 547.5C171.7 548.7 214.3 538.3 257.2 533.3C300 528.3 343 528.7 385.8 527.2C428.7 525.7 471.3 522.3 514.2 520.7C557 519 600 519 642.8 518.2C685.7 517.3 728.3 515.7 771.2 522.3C814 529 857 544 878.5 551.5L900 559L900 601L878.5 601C857 601 814 601 771.2 601C728.3 601 685.7 601 642.8 601C600 601 557 601 514.2 601C471.3 601 428.7 601 385.8 601C343 601 300 601 257.2 601C214.3 601 171.7 601 128.8 601C86 601 43 601 21.5 601L0 601Z" fill="#c62368"></path></svg>